<mxfile host="Electron" agent="Mozilla/5.0 (Windows NT 10.0; Win64; x64) AppleWebKit/537.36 (KHTML, like Gecko) draw.io/24.7.8 Chrome/128.0.6613.36 Electron/32.0.1 Safari/537.36" version="24.7.8">
  <diagram name="manage_notifications" id="_SZg6cWZzz3fK5TqtbBA">
    <mxGraphModel dx="3903" dy="1793" grid="1" gridSize="10" guides="1" tooltips="1" connect="1" arrows="1" fold="1" page="1" pageScale="1" pageWidth="850" pageHeight="1100" math="0" shadow="0">
      <root>
        <mxCell id="0" />
        <mxCell id="1" parent="0" />
        <mxCell id="fGhYms-gsFUqHHK-8VPa-1" value="EDMS User" style="swimlane;whiteSpace=wrap;fontSize=16;fontStyle=1" vertex="1" parent="1">
          <mxGeometry x="-220" y="128" width="790" height="1312" as="geometry" />
        </mxCell>
        <mxCell id="fGhYms-gsFUqHHK-8VPa-2" value="Select Notifications&#xa;button" style="rounded=1;fontSize=19;fillColor=#fff2cc;strokeColor=#d6b656;fontStyle=1" vertex="1" parent="fGhYms-gsFUqHHK-8VPa-1">
          <mxGeometry x="191" y="337" width="200" height="62.5" as="geometry" />
        </mxCell>
        <mxCell id="fGhYms-gsFUqHHK-8VPa-3" style="edgeStyle=orthogonalEdgeStyle;rounded=0;orthogonalLoop=1;jettySize=auto;html=1;exitX=0.5;exitY=1;exitDx=0;exitDy=0;entryX=0.5;entryY=0;entryDx=0;entryDy=0;fontStyle=1" edge="1" parent="fGhYms-gsFUqHHK-8VPa-1" target="fGhYms-gsFUqHHK-8VPa-2">
          <mxGeometry relative="1" as="geometry">
            <mxPoint x="290.9899999999998" y="256" as="sourcePoint" />
          </mxGeometry>
        </mxCell>
        <mxCell id="fGhYms-gsFUqHHK-8VPa-4" style="edgeStyle=orthogonalEdgeStyle;rounded=0;orthogonalLoop=1;jettySize=auto;html=1;exitX=0.5;exitY=1;exitDx=0;exitDy=0;" edge="1" parent="fGhYms-gsFUqHHK-8VPa-1" source="fGhYms-gsFUqHHK-8VPa-5" target="fGhYms-gsFUqHHK-8VPa-18">
          <mxGeometry relative="1" as="geometry" />
        </mxCell>
        <mxCell id="fGhYms-gsFUqHHK-8VPa-5" value="" style="ellipse;fillColor=strokeColor;html=1;fontStyle=1" vertex="1" parent="fGhYms-gsFUqHHK-8VPa-1">
          <mxGeometry x="275.99" y="42" width="30" height="30" as="geometry" />
        </mxCell>
        <mxCell id="fGhYms-gsFUqHHK-8VPa-6" style="edgeStyle=orthogonalEdgeStyle;rounded=0;orthogonalLoop=1;jettySize=auto;html=1;entryX=0.5;entryY=0;entryDx=0;entryDy=0;fontStyle=1;exitX=0.5;exitY=1;exitDx=0;exitDy=0;" edge="1" parent="fGhYms-gsFUqHHK-8VPa-1" source="fGhYms-gsFUqHHK-8VPa-15" target="fGhYms-gsFUqHHK-8VPa-42">
          <mxGeometry relative="1" as="geometry">
            <mxPoint x="150" y="690" as="targetPoint" />
            <mxPoint x="170" y="709" as="sourcePoint" />
          </mxGeometry>
        </mxCell>
        <mxCell id="fGhYms-gsFUqHHK-8VPa-8" value="Select Clear button" style="rounded=1;fontSize=19;fillColor=#fff2cc;strokeColor=#d6b656;fontStyle=1" vertex="1" parent="fGhYms-gsFUqHHK-8VPa-1">
          <mxGeometry x="490" y="524.75" width="200" height="62.5" as="geometry" />
        </mxCell>
        <mxCell id="fGhYms-gsFUqHHK-8VPa-14" style="edgeStyle=orthogonalEdgeStyle;rounded=0;orthogonalLoop=1;jettySize=auto;html=1;exitX=1;exitY=0.5;exitDx=0;exitDy=0;" edge="1" parent="fGhYms-gsFUqHHK-8VPa-1" source="fGhYms-gsFUqHHK-8VPa-15" target="fGhYms-gsFUqHHK-8VPa-8">
          <mxGeometry relative="1" as="geometry" />
        </mxCell>
        <mxCell id="fGhYms-gsFUqHHK-8VPa-15" value="Clear &#xa;Notification ?" style="rhombus;fontSize=19;fillColor=#dae8fc;strokeColor=#6c8ebf;fontStyle=1" vertex="1" parent="fGhYms-gsFUqHHK-8VPa-1">
          <mxGeometry x="192.20999999999992" y="485" width="197.79" height="142" as="geometry" />
        </mxCell>
        <mxCell id="fGhYms-gsFUqHHK-8VPa-17" value="&lt;span style=&quot;font-size: 19px;&quot;&gt;Yes&lt;/span&gt;" style="text;html=1;align=center;verticalAlign=middle;whiteSpace=wrap;rounded=0;fontStyle=1" vertex="1" parent="fGhYms-gsFUqHHK-8VPa-1">
          <mxGeometry x="380" y="524.75" width="60" height="30" as="geometry" />
        </mxCell>
        <mxCell id="fGhYms-gsFUqHHK-8VPa-18" value="Navigate to &#xa;Dashboard" style="rounded=1;fontSize=19;fillColor=#fff2cc;strokeColor=#d6b656;fontStyle=1" vertex="1" parent="fGhYms-gsFUqHHK-8VPa-1">
          <mxGeometry x="191.21" y="192" width="200" height="62.5" as="geometry" />
        </mxCell>
        <mxCell id="fGhYms-gsFUqHHK-8VPa-44" style="edgeStyle=orthogonalEdgeStyle;rounded=0;orthogonalLoop=1;jettySize=auto;html=1;exitX=1;exitY=0.5;exitDx=0;exitDy=0;entryX=0;entryY=0.5;entryDx=0;entryDy=0;" edge="1" parent="fGhYms-gsFUqHHK-8VPa-1" source="fGhYms-gsFUqHHK-8VPa-42" target="fGhYms-gsFUqHHK-8VPa-45">
          <mxGeometry relative="1" as="geometry">
            <mxPoint x="360" y="624" as="targetPoint" />
          </mxGeometry>
        </mxCell>
        <mxCell id="fGhYms-gsFUqHHK-8VPa-61" style="edgeStyle=orthogonalEdgeStyle;rounded=0;orthogonalLoop=1;jettySize=auto;html=1;exitX=0.5;exitY=1;exitDx=0;exitDy=0;entryX=0.5;entryY=0;entryDx=0;entryDy=0;" edge="1" parent="fGhYms-gsFUqHHK-8VPa-1" source="fGhYms-gsFUqHHK-8VPa-42" target="fGhYms-gsFUqHHK-8VPa-57">
          <mxGeometry relative="1" as="geometry" />
        </mxCell>
        <mxCell id="fGhYms-gsFUqHHK-8VPa-42" value="Clear All&#xa;Notifications ?" style="rhombus;fontSize=19;fillColor=#dae8fc;strokeColor=#6c8ebf;fontStyle=1" vertex="1" parent="fGhYms-gsFUqHHK-8VPa-1">
          <mxGeometry x="192.3199999999999" y="744" width="197.79" height="142" as="geometry" />
        </mxCell>
        <mxCell id="fGhYms-gsFUqHHK-8VPa-43" value="&lt;span style=&quot;font-size: 19px;&quot;&gt;No&lt;/span&gt;" style="text;html=1;align=center;verticalAlign=middle;whiteSpace=wrap;rounded=0;fontStyle=1" vertex="1" parent="fGhYms-gsFUqHHK-8VPa-1">
          <mxGeometry x="230" y="622" width="60" height="30" as="geometry" />
        </mxCell>
        <mxCell id="fGhYms-gsFUqHHK-8VPa-45" value="Select Clear All&#xa;button" style="rounded=1;fontSize=19;fillColor=#fff2cc;strokeColor=#d6b656;fontStyle=1" vertex="1" parent="fGhYms-gsFUqHHK-8VPa-1">
          <mxGeometry x="490" y="784" width="200" height="62.5" as="geometry" />
        </mxCell>
        <mxCell id="fGhYms-gsFUqHHK-8VPa-50" value="&lt;span style=&quot;font-size: 19px;&quot;&gt;Yes&lt;/span&gt;" style="text;html=1;align=center;verticalAlign=middle;whiteSpace=wrap;rounded=0;fontStyle=1" vertex="1" parent="fGhYms-gsFUqHHK-8VPa-1">
          <mxGeometry x="381" y="784" width="60" height="30" as="geometry" />
        </mxCell>
        <mxCell id="fGhYms-gsFUqHHK-8VPa-73" style="edgeStyle=orthogonalEdgeStyle;rounded=0;orthogonalLoop=1;jettySize=auto;html=1;exitX=1;exitY=0.5;exitDx=0;exitDy=0;entryX=0;entryY=0.5;entryDx=0;entryDy=0;" edge="1" parent="fGhYms-gsFUqHHK-8VPa-1" source="fGhYms-gsFUqHHK-8VPa-57" target="fGhYms-gsFUqHHK-8VPa-72">
          <mxGeometry relative="1" as="geometry" />
        </mxCell>
        <mxCell id="fGhYms-gsFUqHHK-8VPa-57" value="Inspect Device ?" style="rhombus;fontSize=19;fillColor=#dae8fc;strokeColor=#6c8ebf;fontStyle=1" vertex="1" parent="fGhYms-gsFUqHHK-8VPa-1">
          <mxGeometry x="192.3199999999999" y="994" width="197.79" height="142" as="geometry" />
        </mxCell>
        <mxCell id="fGhYms-gsFUqHHK-8VPa-62" value="&lt;span style=&quot;font-size: 19px;&quot;&gt;No&lt;/span&gt;" style="text;html=1;align=center;verticalAlign=middle;whiteSpace=wrap;rounded=0;fontStyle=1" vertex="1" parent="fGhYms-gsFUqHHK-8VPa-1">
          <mxGeometry x="230" y="874" width="60" height="30" as="geometry" />
        </mxCell>
        <mxCell id="fGhYms-gsFUqHHK-8VPa-63" value="&lt;span style=&quot;font-size: 19px;&quot;&gt;No&lt;/span&gt;" style="text;html=1;align=center;verticalAlign=middle;whiteSpace=wrap;rounded=0;fontStyle=1" vertex="1" parent="fGhYms-gsFUqHHK-8VPa-1">
          <mxGeometry x="230" y="1134" width="60" height="30" as="geometry" />
        </mxCell>
        <mxCell id="fGhYms-gsFUqHHK-8VPa-65" value="" style="ellipse;html=1;shape=endState;fillColor=strokeColor;fontStyle=1" vertex="1" parent="fGhYms-gsFUqHHK-8VPa-1">
          <mxGeometry x="275.99" y="1216" width="30" height="32" as="geometry" />
        </mxCell>
        <mxCell id="fGhYms-gsFUqHHK-8VPa-66" style="edgeStyle=orthogonalEdgeStyle;rounded=0;orthogonalLoop=1;jettySize=auto;html=1;entryX=0.5;entryY=0;entryDx=0;entryDy=0;exitX=0.5;exitY=1;exitDx=0;exitDy=0;" edge="1" parent="fGhYms-gsFUqHHK-8VPa-1" target="fGhYms-gsFUqHHK-8VPa-65" source="fGhYms-gsFUqHHK-8VPa-57">
          <mxGeometry relative="1" as="geometry">
            <mxPoint x="290.98" y="1145" as="sourcePoint" />
            <Array as="points">
              <mxPoint x="291" y="1206" />
              <mxPoint x="291" y="1206" />
            </Array>
          </mxGeometry>
        </mxCell>
        <mxCell id="fGhYms-gsFUqHHK-8VPa-71" value="&lt;span style=&quot;font-size: 19px;&quot;&gt;Yes&lt;/span&gt;" style="text;html=1;align=center;verticalAlign=middle;whiteSpace=wrap;rounded=0;fontStyle=1" vertex="1" parent="fGhYms-gsFUqHHK-8VPa-1">
          <mxGeometry x="380" y="1022" width="60" height="30" as="geometry" />
        </mxCell>
        <mxCell id="fGhYms-gsFUqHHK-8VPa-72" value="Select Inspect&#xa;button" style="rounded=1;fontSize=19;fillColor=#fff2cc;strokeColor=#d6b656;fontStyle=1" vertex="1" parent="fGhYms-gsFUqHHK-8VPa-1">
          <mxGeometry x="490" y="1033.75" width="200" height="62.5" as="geometry" />
        </mxCell>
        <mxCell id="fGhYms-gsFUqHHK-8VPa-19" value="&lt;font style=&quot;font-size: 29px;&quot;&gt;&lt;span style=&quot;font-size: 29px;&quot;&gt;Notification Process&lt;/span&gt;&lt;/font&gt;" style="text;html=1;align=center;verticalAlign=middle;whiteSpace=wrap;rounded=0;fontSize=29;fontStyle=1" vertex="1" parent="1">
          <mxGeometry x="-260" y="78" width="350" height="50" as="geometry" />
        </mxCell>
        <mxCell id="fGhYms-gsFUqHHK-8VPa-20" value="+" style="swimlane;whiteSpace=wrap;fontSize=16;fontStyle=1" vertex="1" parent="1">
          <mxGeometry x="570" y="128" width="460" height="1312" as="geometry" />
        </mxCell>
        <mxCell id="fGhYms-gsFUqHHK-8VPa-30" value="Display the Notification &#xa;list modal" style="rounded=1;fontSize=19;fillColor=#fff2cc;strokeColor=#d6b656;fontStyle=1" vertex="1" parent="fGhYms-gsFUqHHK-8VPa-20">
          <mxGeometry x="175" y="337" width="230" height="62.5" as="geometry" />
        </mxCell>
        <mxCell id="fGhYms-gsFUqHHK-8VPa-10" value="Clear notification from&#xa;list" style="rounded=1;fontSize=19;fillColor=#fff2cc;strokeColor=#d6b656;fontStyle=1" vertex="1" parent="fGhYms-gsFUqHHK-8VPa-20">
          <mxGeometry x="175" y="524.75" width="230" height="62.5" as="geometry" />
        </mxCell>
        <mxCell id="fGhYms-gsFUqHHK-8VPa-12" value="" style="ellipse;html=1;shape=endState;fillColor=strokeColor;fontStyle=1" vertex="1" parent="fGhYms-gsFUqHHK-8VPa-20">
          <mxGeometry x="275" y="662" width="30" height="32" as="geometry" />
        </mxCell>
        <mxCell id="fGhYms-gsFUqHHK-8VPa-13" style="edgeStyle=orthogonalEdgeStyle;rounded=0;orthogonalLoop=1;jettySize=auto;html=1;exitX=0.5;exitY=1;exitDx=0;exitDy=0;entryX=0.5;entryY=0;entryDx=0;entryDy=0;fontStyle=1" edge="1" parent="fGhYms-gsFUqHHK-8VPa-20" source="fGhYms-gsFUqHHK-8VPa-10" target="fGhYms-gsFUqHHK-8VPa-12">
          <mxGeometry relative="1" as="geometry">
            <mxPoint x="290.25" y="756.0000000000002" as="targetPoint" />
          </mxGeometry>
        </mxCell>
        <mxCell id="fGhYms-gsFUqHHK-8VPa-46" value="Clear all notifications&#xa;from list" style="rounded=1;fontSize=19;fillColor=#fff2cc;strokeColor=#d6b656;fontStyle=1" vertex="1" parent="fGhYms-gsFUqHHK-8VPa-20">
          <mxGeometry x="170" y="784" width="230" height="62.5" as="geometry" />
        </mxCell>
        <mxCell id="fGhYms-gsFUqHHK-8VPa-67" value="" style="ellipse;html=1;shape=endState;fillColor=strokeColor;fontStyle=1" vertex="1" parent="fGhYms-gsFUqHHK-8VPa-20">
          <mxGeometry x="270" y="925" width="30" height="32" as="geometry" />
        </mxCell>
        <mxCell id="fGhYms-gsFUqHHK-8VPa-69" style="edgeStyle=orthogonalEdgeStyle;rounded=0;orthogonalLoop=1;jettySize=auto;html=1;exitX=0.5;exitY=1;exitDx=0;exitDy=0;entryX=0.5;entryY=0;entryDx=0;entryDy=0;fontStyle=1" edge="1" parent="fGhYms-gsFUqHHK-8VPa-20" source="fGhYms-gsFUqHHK-8VPa-46" target="fGhYms-gsFUqHHK-8VPa-67">
          <mxGeometry relative="1" as="geometry">
            <mxPoint x="289.79999999999995" y="921.5" as="targetPoint" />
            <mxPoint x="289.79999999999995" y="846.5" as="sourcePoint" />
          </mxGeometry>
        </mxCell>
        <mxCell id="fGhYms-gsFUqHHK-8VPa-74" value="Display Device &#xa;inspection list" style="rounded=1;fontSize=19;fillColor=#fff2cc;strokeColor=#d6b656;fontStyle=1" vertex="1" parent="fGhYms-gsFUqHHK-8VPa-20">
          <mxGeometry x="170" y="1034" width="230" height="62.5" as="geometry" />
        </mxCell>
        <mxCell id="fGhYms-gsFUqHHK-8VPa-75" value="" style="ellipse;html=1;shape=endState;fillColor=strokeColor;fontStyle=1" vertex="1" parent="fGhYms-gsFUqHHK-8VPa-20">
          <mxGeometry x="270" y="1175" width="30" height="32" as="geometry" />
        </mxCell>
        <mxCell id="fGhYms-gsFUqHHK-8VPa-76" style="edgeStyle=orthogonalEdgeStyle;rounded=0;orthogonalLoop=1;jettySize=auto;html=1;exitX=0.5;exitY=1;exitDx=0;exitDy=0;entryX=0.5;entryY=0;entryDx=0;entryDy=0;fontStyle=1" edge="1" parent="fGhYms-gsFUqHHK-8VPa-20" source="fGhYms-gsFUqHHK-8VPa-74" target="fGhYms-gsFUqHHK-8VPa-75">
          <mxGeometry relative="1" as="geometry">
            <mxPoint x="289.79999999999995" y="1171.5" as="targetPoint" />
            <mxPoint x="289.79999999999995" y="1096.5" as="sourcePoint" />
          </mxGeometry>
        </mxCell>
        <mxCell id="fGhYms-gsFUqHHK-8VPa-40" style="edgeStyle=orthogonalEdgeStyle;rounded=0;orthogonalLoop=1;jettySize=auto;html=1;exitX=1;exitY=0.5;exitDx=0;exitDy=0;" edge="1" parent="1" source="fGhYms-gsFUqHHK-8VPa-2" target="fGhYms-gsFUqHHK-8VPa-30">
          <mxGeometry relative="1" as="geometry" />
        </mxCell>
        <mxCell id="fGhYms-gsFUqHHK-8VPa-41" style="edgeStyle=orthogonalEdgeStyle;rounded=0;orthogonalLoop=1;jettySize=auto;html=1;exitX=0.5;exitY=1;exitDx=0;exitDy=0;entryX=0.5;entryY=0;entryDx=0;entryDy=0;" edge="1" parent="1" source="fGhYms-gsFUqHHK-8VPa-30" target="fGhYms-gsFUqHHK-8VPa-15">
          <mxGeometry relative="1" as="geometry" />
        </mxCell>
        <mxCell id="fGhYms-gsFUqHHK-8VPa-11" style="edgeStyle=orthogonalEdgeStyle;rounded=0;orthogonalLoop=1;jettySize=auto;html=1;exitX=1;exitY=0.5;exitDx=0;exitDy=0;fontStyle=1" edge="1" parent="1" source="fGhYms-gsFUqHHK-8VPa-8" target="fGhYms-gsFUqHHK-8VPa-10">
          <mxGeometry relative="1" as="geometry" />
        </mxCell>
        <mxCell id="fGhYms-gsFUqHHK-8VPa-49" style="edgeStyle=orthogonalEdgeStyle;rounded=0;orthogonalLoop=1;jettySize=auto;html=1;exitX=1;exitY=0.5;exitDx=0;exitDy=0;entryX=0;entryY=0.5;entryDx=0;entryDy=0;" edge="1" parent="1" source="fGhYms-gsFUqHHK-8VPa-45" target="fGhYms-gsFUqHHK-8VPa-46">
          <mxGeometry relative="1" as="geometry" />
        </mxCell>
        <mxCell id="fGhYms-gsFUqHHK-8VPa-77" style="edgeStyle=orthogonalEdgeStyle;rounded=0;orthogonalLoop=1;jettySize=auto;html=1;exitX=1;exitY=0.5;exitDx=0;exitDy=0;entryX=0;entryY=0.5;entryDx=0;entryDy=0;" edge="1" parent="1" source="fGhYms-gsFUqHHK-8VPa-72" target="fGhYms-gsFUqHHK-8VPa-74">
          <mxGeometry relative="1" as="geometry" />
        </mxCell>
      </root>
    </mxGraphModel>
  </diagram>
</mxfile>
